<mxfile host="app.diagrams.net" modified="2023-07-02T13:41:33.761Z" agent="Mozilla/5.0 (Macintosh; Intel Mac OS X 10_15_7) AppleWebKit/605.1.15 (KHTML, like Gecko) Version/16.4 Safari/605.1.15" version="21.5.2" etag="uadwnxK7oYWSj8H8Ww6f" type="github">
  <diagram name="第 1 页" id="G3x2PAtFVOR3G7X9ONrm">
    <mxGraphModel>
      <root>
        <mxCell id="0" />
        <mxCell id="1" parent="0" />
      </root>
    </mxGraphModel>
  </diagram>
</mxfile>
